<svg width="600" height="450" viewBox="0 0 600 450" fill="none" xmlns="http://www.w3.org/2000/svg">
  <style>
    @keyframes lineGrow {
      0% { stroke-dashoffset: 1000; }
      100% { stroke-dashoffset: 0; }
    }
    @keyframes pulse {
      0%, 100% { opacity: 0.3; }
      50% { opacity: 0.6; }
    }
    @keyframes float {
      0%, 100% { transform: translateY(0); }
      50% { transform: translateY(-5px); }
    }
    .graph-line {
      stroke-dasharray: 1000;
      animation: lineGrow 5s ease-out forwards;
    }
    .graph-fill {
      animation: pulse 4s ease-in-out infinite;
    }
    .data-point {
      animation: float 3s ease-in-out infinite;
    }
    .metric-card {
      transition: all 0.3s ease;
      cursor: pointer;
    }
    .metric-card:hover {
      transform: translateY(-8px);
    }
    .metric-card rect {
      transition: all 0.3s ease;
    }
    .metric-card:hover rect {
      stroke: #9c30ff !important;
      stroke-width: 3 !important;
      filter: drop-shadow(0 10px 20px rgba(156, 48, 255, 0.4));
    }
    .metric-value {
      transition: fill 0.3s ease;
    }
    .metric-card:hover .metric-value {
      fill: #9c30ff !important;
    }
    .metric-card:hover .metric-label {
      fill: #9c30ff !important;
    }
  </style>

  <!-- Dashboard Background -->
  <rect width="600" height="450" rx="20" fill="#1a1a1a"/>
  <rect x="10" y="10" width="580" height="430" rx="15" fill="#0f0f0f" stroke="#2a2a2a" stroke-width="2"/>

  <!-- Header Section -->
  <rect x="30" y="30" width="540" height="60" rx="10" fill="#121212"/>

  <!-- Logo and Title -->
  <g transform="translate(50, 45)">
    <!-- Asterisk Symbol -->
    <path d="M8 0 L8 16 M0 8 L16 8 M2 2 L14 14 M14 2 L2 14" stroke="#ffffff" stroke-width="2" stroke-linecap="round"/>
    <text x="25" y="13" font-family="Inter, sans-serif" font-size="18" font-weight="700" fill="#ffffff">aspi Dashboard</text>
  </g>

  <text x="50" y="78" font-family="Inter, sans-serif" font-size="12" fill="#999999">Last 30 Days</text>

  <!-- Metric Cards with Hover Effects -->
  <!-- CTR Card -->
  <g class="metric-card">
    <rect x="30" y="110" width="170" height="100" rx="12" fill="#121212" stroke="#9c30ff" stroke-width="2"/>
    <text class="metric-label" x="50" y="135" font-family="Inter, sans-serif" font-size="11" font-weight="600" fill="#9c30ff" letter-spacing="0.5">CTR INCREASE</text>
    <text class="metric-value" x="50" y="170" font-family="Inter, sans-serif" font-size="36" font-weight="800" fill="#9c30ff">+187%</text>
    <!-- Trend line positioned with proper spacing -->
    <path d="M50 195 L65 185 L80 190 L95 180 L110 185 L125 175 L140 180 L155 170" stroke="#9c30ff" stroke-width="2" fill="none"/>
  </g>

  <!-- CVR Card -->
  <g class="metric-card">
    <rect x="215" y="110" width="170" height="100" rx="12" fill="#121212" stroke="#2a2a2a" stroke-width="2"/>
    <text class="metric-label" x="235" y="135" font-family="Inter, sans-serif" font-size="11" font-weight="600" fill="#b8b8b8" letter-spacing="0.5">CVR IMPROVEMENT</text>
    <text class="metric-value" x="235" y="170" font-family="Inter, sans-serif" font-size="36" font-weight="800" fill="#ffffff">+64%</text>
    <path d="M235 195 L250 190 L265 188 L280 183 L295 185 L310 180 L325 182 L340 178" stroke="#ffffff" stroke-width="2" fill="none" opacity="0.5"/>
  </g>

  <!-- ACOS Card -->
  <g class="metric-card">
    <rect x="400" y="110" width="170" height="100" rx="12" fill="#121212" stroke="#2a2a2a" stroke-width="2"/>
    <text class="metric-label" x="420" y="135" font-family="Inter, sans-serif" font-size="11" font-weight="600" fill="#b8b8b8" letter-spacing="0.5">ACOS REDUCTION</text>
    <text class="metric-value" x="420" y="170" font-family="Inter, sans-serif" font-size="36" font-weight="800" fill="#ffffff">-42%</text>
    <path d="M420 195 L435 190 L450 188 L465 193 L480 191 L495 195 L510 193 L525 197" stroke="#ffffff" stroke-width="2" fill="none" opacity="0.5"/>
  </g>

  <!-- Large Graph Area -->
  <rect x="30" y="230" width="540" height="180" rx="12" fill="#121212" stroke="#2a2a2a" stroke-width="2"/>

  <!-- Graph Title -->
  <text x="50" y="255" font-family="Inter, sans-serif" font-size="14" font-weight="600" fill="#ffffff">Click-Through Rate Over Time</text>

  <!-- Graph Grid Lines -->
  <line x1="50" y1="270" x2="550" y2="270" stroke="#2a2a2a" stroke-width="1"/>
  <line x1="50" y1="310" x2="550" y2="310" stroke="#2a2a2a" stroke-width="1"/>
  <line x1="50" y1="350" x2="550" y2="350" stroke="#2a2a2a" stroke-width="1"/>
  <line x1="50" y1="390" x2="550" y2="390" stroke="#2a2a2a" stroke-width="1"/>

  <!-- Animated Graph Fill -->
  <path class="graph-fill" d="M50 390 L50 380 L90 375 L130 370 L170 365 L210 355 L250 340 L290 330 L330 315 L370 305 L410 295 L450 285 L490 275 L530 265 L530 390 Z"
        fill="url(#areaGradient)"/>

  <!-- Animated Graph Line -->
  <path class="graph-line" d="M50 380 L90 375 L130 370 L170 365 L210 355 L250 340 L290 330 L330 315 L370 305 L410 295 L450 285 L490 275 L530 265"
        stroke="url(#gradient)" stroke-width="3" fill="none" stroke-linecap="round"/>

  <!-- Animated Data Points -->
  <circle class="data-point" cx="50" cy="380" r="5" fill="#9c30ff" style="animation-delay: 0s"/>
  <circle class="data-point" cx="130" cy="370" r="5" fill="#9c30ff" style="animation-delay: 0.7s"/>
  <circle class="data-point" cx="210" cy="355" r="5" fill="#9c30ff" style="animation-delay: 1.4s"/>
  <circle class="data-point" cx="290" cy="330" r="5" fill="#9c30ff" style="animation-delay: 2.1s"/>
  <circle class="data-point" cx="370" cy="305" r="5" fill="#9c30ff" style="animation-delay: 2.8s"/>
  <circle class="data-point" cx="450" cy="285" r="5" fill="#9c30ff" style="animation-delay: 3.5s"/>
  <circle class="data-point" cx="530" cy="265" r="6" fill="#9c30ff" stroke="#9c30ff" stroke-width="8" opacity="0.3" style="animation-delay: 4.2s"/>

  <!-- X-axis Labels -->
  <text x="45" y="405" font-family="Inter, sans-serif" font-size="10" fill="#666666">Week 1</text>
  <text x="205" y="405" font-family="Inter, sans-serif" font-size="10" fill="#666666">Week 2</text>
  <text x="365" y="405" font-family="Inter, sans-serif" font-size="10" fill="#666666">Week 3</text>
  <text x="520" y="405" font-family="Inter, sans-serif" font-size="10" fill="#666666">Week 4</text>

  <!-- Gradient Definitions -->
  <defs>
    <linearGradient id="gradient" x1="0%" y1="0%" x2="100%" y2="0%">
      <stop offset="0%" style="stop-color:#9c30ff;stop-opacity:0.6" />
      <stop offset="100%" style="stop-color:#9c30ff;stop-opacity:1" />
    </linearGradient>
    <linearGradient id="areaGradient" x1="0%" y1="0%" x2="0%" y2="100%">
      <stop offset="0%" style="stop-color:#9c30ff;stop-opacity:0.4" />
      <stop offset="100%" style="stop-color:#9c30ff;stop-opacity:0" />
    </linearGradient>
  </defs>

  <!-- Floating Badge -->
  <g transform="translate(450, 30)">
    <rect width="100" height="30" rx="15" fill="#9c30ff" opacity="0.9"/>
    <text x="50" y="20" font-family="Inter, sans-serif" font-size="12" font-weight="700" fill="#ffffff" text-anchor="middle">LIVE DATA</text>
  </g>
</svg>